<svg xmlns="http://www.w3.org/2000/svg">
  <symbol id="icon" viewBox="0 0 16 16">
    <path d="M6.717 3.091A3.99 3.99 0 0 1 8 2.993c2.21 0 4 1.79 4 4 0 .88.32 4.2 1.22 6H1.78c.227-.448.484-.801.78-1.01.07-.053.14-.106.213-.159l4.944-3.838zM1.256 5.354l-.845.828a.75.75 0 1 0 1.06 1.06l1.006-.986A14.56 14.56 0 0 0 3 6.993c0-.18.006-.358.018-.534l-1.762-.105zm11.487.025l-1.774 1.379c-.011.178-.018.357-.018.538 0 .628-.134 2.197-.459 3.742-.16.767-.376 1.566-.663 2.258h1.41c.287-.692.502-1.49.663-2.258.325-1.545.459-3.114.459-3.742a4.002 4.002 0 0 0-2.618-3.75zm-3.36 7.621H5.707l.545-.424 1.131.124zM8 16a2 2 0 0 0 2-2H6a2 2 0 0 0 2 2zM1.293 1.293a1 1 0 0 1 1.414 0l12 12a1 1 0 0 1-1.414 1.414l-12-12a1 1 0 0 1 0-1.414z"/>
  </symbol>
</svg>
